HIERARCHY
ROOT Hips
{
	OFFSET 0.000000 0.000000 0.000000
	CHANNELS 6 Xposition Yposition Zposition Xrotation Yrotation Zrotation
	JOINT LeftUpLeg_virtual
	{
		OFFSET 0.000000 0.000000 0.000000
		CHANNELS 3 Xrotation Yrotation Zrotation
		JOINT LeftUpLeg
		{
			OFFSET 15.427100 -6.655098 0.678600
			CHANNELS 3 Xrotation Yrotation Zrotation
			JOINT LeftLeg
			{
				OFFSET 4.081073 -39.591068 13.024000
				CHANNELS 3 Xrotation Yrotation Zrotation
				JOINT LeftFoot
				{
					OFFSET -4.081074 -37.707932 -15.979700
					CHANNELS 3 Xrotation Yrotation Zrotation
					JOINT LeftToeBase
					{
						OFFSET 5.346399 -15.068900 20.645000
						CHANNELS 3 Xrotation Yrotation Zrotation
						JOINT LeftToe_End
						{
							OFFSET 2.754700 0.931300 11.300900
							CHANNELS 3 Xrotation Yrotation Zrotation
							End Site
							{
								OFFSET 0 0 0
							}
						}
					}
				}
			}
		}
	}
	JOINT RightUpLeg_virtual
	{
		OFFSET 0.000000 0.000000 0.000000
		CHANNELS 3 Xrotation Yrotation Zrotation
		JOINT RightUpLeg
		{
			OFFSET -15.569500 -6.655098 0.678600
			CHANNELS 3 Xrotation Yrotation Zrotation
			JOINT RightLeg
			{
				OFFSET -4.081825 -39.591045 13.023800
				CHANNELS 3 Xrotation Yrotation Zrotation
				JOINT RightFoot
				{
					OFFSET 4.081824 -37.707954 -15.979600
					CHANNELS 3 Xrotation Yrotation Zrotation
					JOINT RightToeBase
					{
						OFFSET -5.346400 -15.068900 20.645000
						CHANNELS 3 Xrotation Yrotation Zrotation
						JOINT RightToe_End
						{
							OFFSET -2.754700 0.931300 11.300900
							CHANNELS 3 Xrotation Yrotation Zrotation
							End Site
							{
								OFFSET 0 0 0
							}
						}
					}
				}
			}
		}
	}
	JOINT Spine_virtual
	{
		OFFSET 0.000000 0.000000 0.000000
		CHANNELS 3 Xrotation Yrotation Zrotation
		JOINT Spine
		{
			OFFSET -0.279200 12.230698 -2.892100
			CHANNELS 3 Xrotation Yrotation Zrotation
			JOINT Spine1
			{
				OFFSET -0.232667 10.192268 -1.242267
				CHANNELS 3 Xrotation Yrotation Zrotation
				JOINT Spine1_split
				{
					OFFSET -0.232667 10.192268 -1.242267
					CHANNELS 3 Xrotation Yrotation Zrotation
					JOINT Spine2
					{
						OFFSET -0.232667 10.192268 -1.242267
						CHANNELS 3 Xrotation Yrotation Zrotation
						JOINT Neck_virtual
						{
							OFFSET 0.000000 0.000000 0.000000
							CHANNELS 3 Xrotation Yrotation Zrotation
							JOINT Neck
							{
								OFFSET -0.418800 17.814194 8.416900
								CHANNELS 3 Xrotation Yrotation Zrotation
								JOINT Head
								{
									OFFSET 0.000000 7.031097 3.806800
									CHANNELS 3 Xrotation Yrotation Zrotation
									JOINT HeadTop_End
									{
										OFFSET 0.000000 24.646606 12.978600
										CHANNELS 3 Xrotation Yrotation Zrotation
										End Site
										{
											OFFSET 0 0 0
										}
									}
								}
							}
						}
						JOINT LeftShoulder_virtual
						{
							OFFSET 0.000000 0.000000 0.000000
							CHANNELS 3 Xrotation Yrotation Zrotation
							JOINT LeftShoulder
							{
								OFFSET 8.476499 7.247704 -3.868750
								CHANNELS 3 Xrotation Yrotation Zrotation
								JOINT LeftShoulder_split
								{
									OFFSET 8.476499 7.247704 -3.868750
									CHANNELS 3 Xrotation Yrotation Zrotation
									JOINT LeftArm
									{
										OFFSET 9.308998 -2.777710 0.208600
										CHANNELS 3 Xrotation Yrotation Zrotation
										JOINT LeftForeArm
										{
											OFFSET 29.972298 0.000000 0.000000
											CHANNELS 3 Xrotation Yrotation Zrotation
											JOINT LeftHand
											{
												OFFSET 26.026505 0.000000 0.000000
												CHANNELS 3 Xrotation Yrotation Zrotation
												End Site
												{
													OFFSET 0 0 0
												}
											}
										}
									}
								}
							}
						}
						JOINT RightShoulder_virtual
						{
							OFFSET 0.000000 0.000000 0.000000
							CHANNELS 3 Xrotation Yrotation Zrotation
							JOINT RightShoulder
							{
								OFFSET -7.570500 7.247704 -3.868750
								CHANNELS 3 Xrotation Yrotation Zrotation
								JOINT RightShoulder_split
								{
									OFFSET -7.570500 7.247704 -3.868750
									CHANNELS 3 Xrotation Yrotation Zrotation
									JOINT RightArm
									{
										OFFSET -9.308998 -2.777710 0.208500
										CHANNELS 3 Xrotation Yrotation Zrotation
										JOINT RightForeArm
										{
											OFFSET -29.972300 0.000000 0.000000
											CHANNELS 3 Xrotation Yrotation Zrotation
											JOINT RightHand
											{
												OFFSET -26.026505 0.000000 0.000000
												CHANNELS 3 Xrotation Yrotation Zrotation
												End Site
												{
													OFFSET 0 0 0
												}
											}
										}
									}
								}
							}
						}
					}
				}
			}
		}
	}
}
MOTION
Frames: 6
Frame Time: 0.03333333
0.697574 105.910583 -5.922958 0.000000 0.000000 0.000000 -86.157666 -5.053938 1.069429 9.531384 21.023817 8.333514 -5.538637 5.512510 8.441452 35.333610 27.740631 -29.479575 -11.270877 0.187668 4.438922 0.000000 0.000000 0.000000 -88.150722 -0.935944 4.040726 7.805601 -22.184343 -17.826519 -3.066172 -0.450832 -9.037617 35.192475 -32.443682 35.960785 -7.758300 1.355996 -0.763323 0.000000 0.000000 0.000000 -86.588630 -6.627050 -1.339471 4.971708 -2.040740 0.978830 4.703696 -0.946405 -1.480423 0.454460 0.698220 -0.375464 0.000000 0.000000 0.000000 5.561642 -1.505453 -1.288139 -8.418798 -1.513426 2.458977 -9.706022 -3.638063 4.562796 0.000000 0.000000 0.000000 6.595707 -1.560946 -0.938202 -0.235793 3.598225 -7.803454 -4.304397 1.847888 -4.318382 39.846562 -32.325588 -34.510982 -26.230952 -88.387839 -25.696106 0.000000 0.000000 0.000000 5.937508 -1.497339 -1.408107 0.442317 -3.276381 19.419039 1.142487 2.512553 0.184144 -41.173060 49.669747 58.706678 179.789294 76.734361 178.668050 0.000000 0.000000 0.000000 
0.631308 105.940460 -6.350883 0.000000 0.000000 0.000000 -86.977944 -4.990693 1.210710 10.735412 21.084328 8.406623 -5.624043 5.950414 8.566467 34.847970 28.116158 -29.678248 -11.182126 0.200352 4.575005 0.000000 0.000000 0.000000 -89.220132 -0.728854 4.415066 8.129295 -23.231145 -17.813331 -2.920284 -0.402526 -9.046975 35.193059 -32.144322 35.890131 -7.711605 1.403198 -0.677641 0.000000 0.000000 0.000000 -87.637003 -6.397480 -1.087075 4.960203 -2.117649 1.012606 4.433155 -1.016090 -1.614637 0.633443 0.687302 -0.411267 0.000000 0.000000 0.000000 5.460614 -1.557818 -1.444332 -9.126646 -1.389365 2.611946 -11.657619 -3.134811 5.383107 0.000000 0.000000 0.000000 6.460657 -1.612682 -1.101866 -0.186839 3.122698 -7.065195 -4.476117 1.528243 -4.175039 38.942621 -32.229740 -35.820705 -27.142289 -88.525412 -26.507273 0.000000 0.000000 0.000000 5.723435 -1.530979 -1.515963 0.445183 -3.007708 18.109442 0.843294 2.831214 -0.122527 -44.990893 47.878472 61.352611 -178.402492 77.916407 176.832573 0.000000 0.000000 0.000000 
0.609457 105.904243 -6.531372 0.000000 0.000000 0.000000 -87.514449 -4.947050 1.233570 11.503562 20.922983 8.761633 -5.500719 6.277838 8.666903 34.544440 28.613402 -29.862369 -11.161040 0.190622 4.749938 0.000000 0.000000 0.000000 -89.906661 -0.672091 4.527273 8.223747 -24.030940 -17.639858 -2.929736 -0.427828 -8.983029 35.696136 -31.809881 35.838662 -8.221872 1.431540 -0.601005 0.000000 0.000000 0.000000 -88.334468 -6.210242 -0.972878 4.900602 -2.085407 1.139602 4.336829 -1.024885 -1.661483 0.806893 0.657724 -0.403493 0.000000 0.000000 0.000000 5.406551 -1.542278 -1.539066 -9.325197 -1.219712 2.426056 -11.911531 -2.557507 5.842581 0.000000 0.000000 0.000000 6.431597 -1.615154 -1.217499 -0.155043 2.595539 -6.611049 -4.536653 1.274903 -3.873960 38.370223 -32.280905 -36.524324 -27.752563 -88.859620 -27.098128 0.000000 0.000000 0.000000 5.659644 -1.475716 -1.536656 0.470970 -2.706677 17.072297 0.413325 2.989428 -0.368479 -46.530934 46.922587 61.926675 -176.622135 78.984431 175.073704 0.000000 0.000000 0.000000 
0.623031 105.834900 -6.504494 0.000000 0.000000 0.000000 -87.722701 -4.919256 1.149970 11.750100 20.524121 9.303456 -5.218276 6.437588 8.749530 34.480530 29.113876 -30.048925 -11.118056 0.170280 4.892304 0.000000 0.000000 0.000000 -90.166912 -0.785257 4.349068 8.179876 -24.402000 -17.371335 -3.061241 -0.477884 -8.910795 36.671747 -31.444757 35.949434 -9.287841 1.431289 -0.563753 0.000000 0.000000 0.000000 -88.658444 -6.109456 -1.011892 4.815123 -1.941768 1.335568 4.355181 -0.992378 -1.623545 1.037190 0.637039 -0.352310 0.000000 0.000000 0.000000 5.358807 -1.464450 -1.569341 -8.936304 -1.052521 1.950133 -10.339754 -1.957122 5.925003 0.000000 0.000000 0.000000 6.480677 -1.586830 -1.269530 -0.134655 2.128625 -6.448789 -4.377227 1.075370 -3.385205 38.259031 -32.541480 -36.587151 -29.054491 -89.302825 -28.445189 0.000000 0.000000 0.000000 5.738171 -1.364826 -1.479320 0.528912 -2.472130 16.442625 -0.034296 3.013648 -0.510209 -45.142271 47.150326 60.203972 -175.535015 79.613805 174.097560 0.000000 0.000000 0.000000 
0.641850 105.723602 -6.280563 0.000000 0.000000 0.000000 -87.660936 -4.978592 0.939217 11.493799 19.896867 9.888661 -4.894380 6.416046 8.853943 34.648197 29.580122 -30.208670 -10.941981 0.164209 4.903170 0.000000 0.000000 0.000000 -89.953953 -0.976714 3.983360 8.110212 -24.254748 -16.975908 -3.326033 -0.519832 -8.932863 37.782090 -31.242163 36.080153 -10.409940 1.405368 -0.581622 0.000000 0.000000 0.000000 -88.626356 -6.124073 -1.213725 4.716634 -1.724208 1.539931 4.434876 -0.951355 -1.528252 1.238782 0.520947 -0.226535 0.000000 0.000000 0.000000 5.291269 -1.360952 -1.534056 -7.923620 -0.920774 1.308353 -6.918693 -1.444729 5.602432 0.000000 0.000000 0.000000 6.600377 -1.559620 -1.260222 -0.113969 1.826162 -6.504620 -4.131090 1.021381 -2.844489 38.542491 -32.942289 -36.175417 -38.666838 -89.687842 -38.137932 0.000000 0.000000 0.000000 5.906332 -1.251946 -1.364557 0.611223 -2.417077 16.284955 -0.257605 3.061897 -0.606478 -40.345115 48.282460 56.099359 -175.752297 79.319233 174.537875 0.000000 0.000000 0.000000 
0.661543 105.586609 -6.028603 0.000000 0.000000 0.000000 -87.306538 -5.123288 0.626478 10.815204 19.140060 10.372242 -4.697734 6.276789 8.982467 34.859957 30.035091 -30.234536 -10.555789 0.182756 4.736953 0.000000 0.000000 0.000000 -89.379828 -1.198482 3.504423 8.053623 -23.628228 -16.473783 -3.674406 -0.589111 -9.064633 38.696696 -31.360308 36.055367 -11.148178 1.372838 -0.629651 0.000000 0.000000 0.000000 -88.268283 -6.245420 -1.551272 4.633740 -1.481863 1.702026 4.537284 -0.936598 -1.381627 1.309455 0.322980 -0.160232 0.000000 0.000000 0.000000 5.177042 -1.256411 -1.441381 -6.324987 -0.860070 0.602477 -1.888210 -1.181185 4.915990 0.000000 0.000000 0.000000 6.752760 -1.552758 -1.177092 -0.093181 1.800326 -6.679629 -3.776937 1.021982 -2.364205 39.108939 -33.480897 -35.476429 -52.132163 -89.814426 -51.719026 0.000000 0.000000 0.000000 6.112736 -1.166613 -1.210858 0.715142 -2.653767 16.572399 -0.238016 3.146917 -0.638292 -32.199001 49.453561 49.775127 -177.191773 77.748808 176.279751 0.000000 0.000000 0.000000 
